<?xml version="1.0" encoding="UTF-8"?>
<svg id="Layer_2" data-name="Layer 2" xmlns="http://www.w3.org/2000/svg" xmlns:xlink="http://www.w3.org/1999/xlink" viewBox="0 0 720.58 748.63">
  <defs>
    <style>
      .cls-1 {
        fill: url(#linear-gradient);
      }
    </style>
    <linearGradient id="linear-gradient" x1="0" y1="374.31" x2="720.58" y2="374.31" gradientUnits="userSpaceOnUse">
      <stop offset="0" stop-color="#a78544"/>
      <stop offset=".02" stop-color="#a98746"/>
      <stop offset=".13" stop-color="#b59651"/>
      <stop offset=".26" stop-color="#bc9f57"/>
      <stop offset=".47" stop-color="#bfa25a"/>
      <stop offset=".71" stop-color="#bc9f58"/>
      <stop offset=".86" stop-color="#b69751"/>
      <stop offset=".97" stop-color="#aa8947"/>
      <stop offset="1" stop-color="#a78544"/>
    </linearGradient>
  </defs>
  <g id="Layer_1-2" data-name="Layer 1">
    <path class="cls-1" d="M34.14,180.51c16.35-28.49,24.1-48.91,33.48-65.84,14.1-25.46,15.75-56.42,28.19-82.28.34-.7,1.09-1.1,1.86-1,12,1.55,25.34,1.51,37.49,1.09,51.15-1.8,85.44-18.06,133.23-24.82,86.85-15.6,162.28-7.05,222.09,22.79,61.82,30.84,106.94,84.42,130.73,157.6,22.62,69.6,27.78,156.9,6.93,259.07-2.14,10.49-12.07,5.03-20.77,3.47-8.32-1.49-16.19-3.65-16.97-3.87-12.41-3.44-12.32-3.41-22.64-6.55-7.23-2.15-14.62-3.87-13.86-12.11C581.27,242.1,490.98.76,265.18,40.58c-1.26.11-1.92,1.54-1.2,2.58,11.93,14.16,29.46,21.35,40.32,36.33.7.95,1.35,1.65,1.76,2.47.66,1.33-.71,2.78-2.1,2.24-55.57-29.33-108.4-27.07-168.12-20.35-6.45.85-14.48.94-19.81,4.89-.03.02-.05.05-.07.08-20.76,37.59-20.32,101.17-11.36,142.44v.02c19.65,68.18,85.21,107.57,138.07,151.11,20.95,17.26,46.25-10.73,51.99-33.12,8.88-34.64,7.46-82.07,2.15-106.21-1.05-4.76,2.82-7.41,5.46-1.49,22.49,58.48,25.38,123.57-13.97,174.09-5.67,7.97-23.96,33.9-35.68,28.13-4.81-2.37-17.66-23.2-22.59-28.78-35.39-40.03-60.18-53.03-99.11-86.97-27.21-23.73-35.17-30.91-40.79-33.77-3.53-.91-2.83,4.51-2.75,6.79h0c-2.43,149.45,82.13,326.45,254.28,315.61,26.1-1.15,38.65-5.65,63.65-13.4.83-.16,8.47-3.09,14.2-7.33,13.31-8.56,19.16-19.97,25.47-36.15v-.02c2.93-8.94,3.09-11.55,4-17.4,1.13-5.16.89-55.34,6.91-30.22,0,.01,0,.02,0,.04,4.93,60.06.69,151.78-66.59,174.55-1.47.31-2.55-1.36-1.68-2.58,8.23-12.04,19.02-24.84,25.44-40.2.34-1.14-.6-2.25-1.78-2.11C129.32,691.95-70.47,454.42,23.49,201.01M393.51,215.17c-.8.17-1.37.86-1.42,1.68-.28,4.67-1.6,10.94,9.14,18.74,18.18,13.2,14.9,12.69,46.51,15.87,4.07.41,8.26,2.07,9.76.17,1.1-1.39.07-5.59,0-9.1-.67-31.78-40.74-32.26-63.98-27.36ZM719.46,479.68c-11.88.14-53.55,2.85-64.3,3.02-29.79.48-52.79-9.56-84.41-22.21-47.59-18.04-98.36-58.54-128.85-98.53-.02-.03-.06-.06-.09-.07-9.56-3.99-17.36-.35-25.1,5.16-5.47,4.11-13.82,10.15-19.43,14.52h-.02c-9.26,5.43-9.54,13.24-3.59,21v.02c74.91,83.89,210.03,135.07,316.08,86.07,2.15-.98,14.58-7.84,9.72-8.98ZM596.08,560.96c8.72-24.25,8.61-34.4-.39-36.73-9.91-2.56-22.68-4.17-45.64-8.65-12.11-2.36-14.64,9.03-16.73,17.65-1.72,5.96-4.5,12.98-6.56,19.08-16.79,47.31-40.44,95.7-76.98,130.29-29.34,26.66-120.44,47.26-113.42-16.06.22-1-.53-1.96-1.56-1.99l-42.44-1.29c-.86-.03-1.61.62-1.69,1.47,0,.04,0,.07.01.11,14.36,48.38,34.95,70.98,85.21,83.06.01,0,.02,0,.04,0,78.73,7.46,136.99-44.12,188.52-124.4,2.68-4.18,10.9-17.63,14.74-25.65.34-.7,4.85-9.61,6.74-13.55,2.5-5.22,4.02-9.03,7.26-15.85v-.02s2.9-7.49,2.9-7.49Z"/>
  </g>
</svg>